<svg width="846" height="3239" viewBox="0 0 846 3239" fill="none" xmlns="http://www.w3.org/2000/svg">
<path d="M421 20L430.547 0H407.453L417 20H421ZM419 712H417V712.003L419 712ZM835.5 201L845.047 181H821.953L831.5 201H835.5ZM14.5 201L24.047 181H0.952994L10.5 201H14.5ZM419.464 2393L409.953 2413.02L433.047 2412.98L423.464 2393L419.464 2393ZM420.25 1711L418.25 1711V1711L420.25 1711ZM353 2060L333 2050.45V2073.55L353 2064V2060ZM479.5 2239.5L499.5 2249.05V2225.95L479.5 2235.5V2239.5ZM423.5 2849L433.047 2829H409.953L419.5 2849H423.5ZM419.5 3219L409.953 3239H433.047L423.5 3219H419.5ZM22.0822 360.196L22.8844 358.364L22.0822 360.196ZM823.813 360.16L823.024 358.322L823.813 360.16ZM417 18V356H421V18H417ZM417 356V534H421V356H417ZM417 534V712H421V534H417ZM419.789 535.838L824.603 361.997L823.024 358.322L418.211 532.162L419.789 535.838ZM835.5 345.458V199H831.5V345.458H835.5ZM419.802 532.168L22.8844 358.364L21.2799 362.028L418.198 535.832L419.802 532.168ZM14.5 345.539V199H10.5V345.539H14.5ZM417 712.003L418.25 1711L422.25 1711L421 711.997L417 712.003ZM418.25 1711L418.875 2062L422.875 2062L422.25 1711L418.25 1711ZM420.875 2060H351V2064H420.875V2060ZM418.875 2062L419.188 2237.5L423.188 2237.5L422.875 2062L418.875 2062ZM419.188 2237.5L419.468 2395L423.468 2395L423.188 2237.5L419.188 2237.5ZM421.188 2239.5H481.5V2235.5H421.188V2239.5ZM419.5 2847V3221H423.5V2847H419.5ZM22.8844 358.364C17.7908 356.133 14.5 351.1 14.5 345.539H10.5C10.5 352.689 14.731 359.16 21.2799 362.028L22.8844 358.364ZM824.603 361.997C831.214 359.158 835.5 352.654 835.5 345.458H831.5C831.5 351.055 828.167 356.114 823.024 358.322L824.603 361.997Z" fill="#C60000"/>
</svg>
